<?xml version="1.0" encoding="UTF-8"?>
<svg id="Layer_8" data-name="Layer 8" xmlns="http://www.w3.org/2000/svg" viewBox="0 0 337.27 406.15">
  <defs>
    <style>
      .cls-1 {
        fill: #fff;
      }

      .cls-1, .cls-2 {
        stroke-width: 0px;
      }

      .cls-2 {
        fill: #6366f1;
      }
    </style>
  </defs>
  <path class="cls-2" d="M337.19,368.26l-16.39-248.26c-1.24-18.69-16.73-33.19-35.47-33.19h-15.87C262.12,37.67,219.8,0,168.64,0s-93.49,37.67-100.84,86.8h-15.87c-18.71,0-34.23,14.5-35.47,33.19L.08,368.26c-1.34,20.52,14.93,37.89,35.47,37.89h266.18c20.54,0,36.81-17.38,35.47-37.89ZM90.89,86.8c7.08-36.51,39.21-64.03,77.75-64.03s70.67,27.52,77.74,64.03H90.89Z"/>
  <path class="cls-1" d="M168.64,333.68c-41.82,0-77.5-26.26-91.46-63.19-2.92-7.73,2.77-16.01,11.03-16.01h0c4.86,0,9.26,2.97,10.97,7.52,10.56,28.1,37.67,48.1,69.46,48.1,57.9,0,73.55-49.27,77.51-70.62,1.03-5.57,5.84-9.64,11.51-9.64h0c7.34,0,12.88,6.68,11.48,13.89-5.47,28.3-26.11,89.96-100.5,89.96Z"/>
  <circle class="cls-1" cx="257.96" cy="193.81" r="15.17"/>
</svg>