<?xml version="1.0" encoding="UTF-8"?>
<svg id="Layer_8" data-name="Layer 8" xmlns="http://www.w3.org/2000/svg" viewBox="0 0 1285.61 406.15">
  <defs>
    <style>
      .cls-1 {
        fill: #fff;
      }

      .cls-1, .cls-2 {
        stroke-width: 0px;
      }

      .cls-2 {
        fill: #6366f1;
      }
    </style>
  </defs>
  <path class="cls-2" d="M337.19,368.26l-16.39-248.26c-1.24-18.69-16.73-33.19-35.47-33.19h-15.87C262.12,37.67,219.8,0,168.64,0s-93.49,37.67-100.84,86.8h-15.87c-18.71,0-34.23,14.5-35.47,33.19L.08,368.26c-1.34,20.52,14.93,37.89,35.47,37.89h266.18c20.54,0,36.81-17.38,35.47-37.89ZM90.89,86.8c7.08-36.51,39.21-64.03,77.75-64.03s70.67,27.52,77.74,64.03H90.89Z"/>
  <path class="cls-1" d="M168.64,333.68c-41.82,0-77.5-26.26-91.46-63.19-2.92-7.73,2.77-16.01,11.03-16.01h0c4.86,0,9.26,2.97,10.97,7.52,10.56,28.1,37.67,48.1,69.46,48.1,57.9,0,73.55-49.27,77.51-70.62,1.03-5.57,5.84-9.64,11.51-9.64h0c7.34,0,12.88,6.68,11.48,13.89-5.47,28.3-26.11,89.96-100.5,89.96Z"/>
  <circle class="cls-1" cx="257.96" cy="193.81" r="15.17"/>
  <g>
    <path class="cls-2" d="M438.04,312.3c-14.25-14.17-21.37-31.29-21.37-51.36,0-4.85,1.71-8.99,5.15-12.42,3.43-3.43,7.61-5.15,12.53-5.15s8.99,1.72,12.42,5.15c3.43,3.43,5.15,7.57,5.15,12.42,0,10.37,3.65,19.21,10.97,26.52,7.31,7.31,16.15,10.97,26.52,10.97s19.1-3.65,26.41-10.97c7.39-7.31,11.08-16.15,11.08-26.52v-59.53h-37.49c-4.85,0-9.03-1.72-12.53-5.15-3.43-3.43-5.15-7.57-5.15-12.42s1.72-8.99,5.15-12.42,7.68-5.26,12.53-5.26h55.06c4.85,0,9.03,1.75,12.53,5.26,3.43,3.43,5.15,7.57,5.15,12.42v77.1c0,20.07-7.12,37.19-21.37,51.36-14.17,14.25-31.3,21.37-51.36,21.37s-37.19-7.12-51.36-21.37Z"/>
    <path class="cls-2" d="M593.8,331.77c-4.4-2.16-7.35-5.56-8.84-10.18-1.57-4.62-1.27-9.1.9-13.43l66.13-132.27c1.49-2.98,3.65-5.37,6.49-7.16,2.83-1.71,5.93-2.57,9.29-2.57s6.45.86,9.29,2.57c2.83,1.79,5,4.18,6.49,7.16l66.02,132.27c2.24,4.33,2.57,8.8,1.01,13.43-1.57,4.63-4.51,8.02-8.84,10.18-2.46,1.27-5.07,1.9-7.83,1.9-3.28,0-6.34-.86-9.18-2.57-2.91-1.79-5.11-4.21-6.6-7.27l-11.75-23.28h-77.32l-11.64,23.28c-2.16,4.4-5.56,7.35-10.18,8.84-4.63,1.57-9.1,1.27-13.43-.9ZM646.73,265.31h42.07l-21.04-42.07-21.04,42.07Z"/>
    <path class="cls-2" d="M866.51,168.85c4.1,2.61,6.71,6.27,7.83,10.97,1.12,4.77.37,9.21-2.24,13.32l-52.37,83.93v38.94c0,4.92-1.72,9.1-5.15,12.53-3.51,3.43-7.68,5.15-12.53,5.15s-8.99-1.71-12.42-5.15c-3.43-3.43-5.15-7.61-5.15-12.53v-38.94l-52.48-83.93c-2.54-4.1-3.28-8.54-2.24-13.32,1.12-4.7,3.73-8.35,7.83-10.97,4.18-2.54,8.62-3.28,13.32-2.24,4.77,1.12,8.43,3.73,10.97,7.83l40.17,64.23,40.17-64.23c2.54-4.1,6.19-6.71,10.97-7.83,4.77-1.04,9.21-.3,13.32,2.24Z"/>
    <path class="cls-2" d="M980.53,225.02l53.71-53.6c2.54-2.54,5.52-4.18,8.95-4.92,3.51-.67,6.9-.34,10.18,1.01,3.36,1.42,6,3.58,7.94,6.49,2.01,2.98,3.02,6.27,3.02,9.85v132.15c0,4.92-1.75,9.1-5.26,12.53-3.43,3.43-7.57,5.15-12.42,5.15s-8.99-1.71-12.42-5.15c-3.43-3.43-5.15-7.61-5.15-12.53v-89.63l-36.03,36.03c-3.43,3.43-7.61,5.15-12.53,5.15s-8.99-1.72-12.42-5.15l-36.03-36.03v89.63c0,4.92-1.72,9.1-5.15,12.53-3.43,3.43-7.57,5.15-12.42,5.15s-9.1-1.71-12.53-5.15c-3.43-3.43-5.15-7.61-5.15-12.53v-132.15c0-3.58,1.01-6.86,3.02-9.85,1.94-2.91,4.55-5.07,7.83-6.49,3.28-1.34,6.68-1.68,10.18-1.01,3.51.75,6.53,2.39,9.06,4.92l53.6,53.6Z"/>
    <path class="cls-2" d="M1095.9,331.77c-4.4-2.16-7.35-5.56-8.84-10.18-1.57-4.62-1.27-9.1.9-13.43l66.13-132.27c1.49-2.98,3.65-5.37,6.49-7.16,2.83-1.71,5.93-2.57,9.29-2.57s6.45.86,9.29,2.57c2.83,1.79,5,4.18,6.49,7.16l66.02,132.27c2.24,4.33,2.57,8.8,1.01,13.43-1.57,4.63-4.51,8.02-8.84,10.18-2.46,1.27-5.07,1.9-7.83,1.9-3.28,0-6.34-.86-9.18-2.57-2.91-1.79-5.11-4.21-6.6-7.27l-11.75-23.28h-77.32l-11.64,23.28c-2.16,4.4-5.56,7.35-10.18,8.84-4.63,1.57-9.1,1.27-13.43-.9ZM1148.83,265.31h42.07l-21.04-42.07-21.04,42.07Z"/>
  </g>
</svg>